<mxfile host="app.diagrams.net" agent="Mozilla/5.0 (Windows NT 10.0; Win64; x64) AppleWebKit/537.36 (KHTML, like Gecko) Chrome/131.0.0.0 Safari/537.36" version="24.9.1">
  <diagram name="第 1 页" id="R_YB8eP6xfJqm2-LIVEI">
    <mxGraphModel dx="899" dy="422" grid="0" gridSize="10" guides="1" tooltips="1" connect="1" arrows="1" fold="1" page="0" pageScale="1" pageWidth="827" pageHeight="1169" math="0" shadow="0">
      <root>
        <mxCell id="0" />
        <mxCell id="1" parent="0" />
        <mxCell id="5quea-IIjvWIthhHO4DX-56" value="" style="rounded=1;whiteSpace=wrap;html=1;fillColor=#f5f5f5;strokeColor=#666666;fontFamily=Times New Roman;shadow=1;labelBackgroundColor=none;glass=0;sketch=1;curveFitting=1;jiggle=2;fontColor=#333333;" vertex="1" parent="1">
          <mxGeometry x="-52" y="314" width="413" height="198" as="geometry" />
        </mxCell>
        <mxCell id="5quea-IIjvWIthhHO4DX-17" value="" style="rounded=0;whiteSpace=wrap;html=1;dashed=1;fillColor=#bac8d3;strokeColor=#23445d;labelBackgroundColor=#D4E1F5;opacity=40;fontFamily=Times New Roman;" vertex="1" parent="1">
          <mxGeometry x="-16" y="385" width="27" height="60" as="geometry" />
        </mxCell>
        <mxCell id="FWlroTrUWCIazvGDAyiw-24" value="" style="endArrow=none;html=1;rounded=0;fontSize=12;startSize=8;endSize=8;curved=1;" parent="1" edge="1">
          <mxGeometry width="50" height="50" relative="1" as="geometry">
            <mxPoint x="30" y="108" as="sourcePoint" />
            <mxPoint x="90" y="108" as="targetPoint" />
          </mxGeometry>
        </mxCell>
        <mxCell id="FWlroTrUWCIazvGDAyiw-26" value="" style="endArrow=none;html=1;rounded=0;fontSize=12;startSize=8;endSize=8;curved=1;" parent="1" edge="1">
          <mxGeometry width="50" height="50" relative="1" as="geometry">
            <mxPoint x="30" y="188" as="sourcePoint" />
            <mxPoint x="90" y="188" as="targetPoint" />
          </mxGeometry>
        </mxCell>
        <mxCell id="FWlroTrUWCIazvGDAyiw-27" value="" style="endArrow=none;html=1;rounded=0;fontSize=12;startSize=8;endSize=8;curved=1;" parent="1" edge="1">
          <mxGeometry width="50" height="50" relative="1" as="geometry">
            <mxPoint x="30" y="188" as="sourcePoint" />
            <mxPoint x="30" y="108" as="targetPoint" />
          </mxGeometry>
        </mxCell>
        <mxCell id="FWlroTrUWCIazvGDAyiw-28" value="" style="endArrow=none;html=1;rounded=0;fontSize=12;startSize=8;endSize=8;curved=1;" parent="1" edge="1">
          <mxGeometry width="50" height="50" relative="1" as="geometry">
            <mxPoint x="10" y="120" as="sourcePoint" />
            <mxPoint x="90" y="120" as="targetPoint" />
          </mxGeometry>
        </mxCell>
        <mxCell id="FWlroTrUWCIazvGDAyiw-29" value="" style="endArrow=none;html=1;rounded=0;fontSize=12;startSize=8;endSize=8;curved=1;" parent="1" edge="1">
          <mxGeometry width="50" height="50" relative="1" as="geometry">
            <mxPoint x="10" y="200" as="sourcePoint" />
            <mxPoint x="90" y="200" as="targetPoint" />
          </mxGeometry>
        </mxCell>
        <mxCell id="FWlroTrUWCIazvGDAyiw-30" value="" style="endArrow=none;html=1;rounded=0;fontSize=12;startSize=8;endSize=8;curved=1;" parent="1" edge="1">
          <mxGeometry width="50" height="50" relative="1" as="geometry">
            <mxPoint x="-10" y="136" as="sourcePoint" />
            <mxPoint x="94" y="136" as="targetPoint" />
          </mxGeometry>
        </mxCell>
        <mxCell id="FWlroTrUWCIazvGDAyiw-31" value="" style="endArrow=none;html=1;rounded=0;fontSize=12;startSize=8;endSize=8;curved=1;" parent="1" edge="1">
          <mxGeometry width="50" height="50" relative="1" as="geometry">
            <mxPoint x="-10" y="216" as="sourcePoint" />
            <mxPoint x="90" y="216" as="targetPoint" />
          </mxGeometry>
        </mxCell>
        <mxCell id="FWlroTrUWCIazvGDAyiw-32" value="" style="endArrow=none;html=1;rounded=0;fontSize=12;startSize=8;endSize=8;curved=1;" parent="1" edge="1">
          <mxGeometry width="50" height="50" relative="1" as="geometry">
            <mxPoint x="10" y="200" as="sourcePoint" />
            <mxPoint x="10" y="120" as="targetPoint" />
          </mxGeometry>
        </mxCell>
        <mxCell id="FWlroTrUWCIazvGDAyiw-33" value="" style="endArrow=none;html=1;rounded=0;fontSize=12;startSize=8;endSize=8;curved=1;" parent="1" edge="1">
          <mxGeometry width="50" height="50" relative="1" as="geometry">
            <mxPoint x="-10" y="216" as="sourcePoint" />
            <mxPoint x="-10" y="136" as="targetPoint" />
          </mxGeometry>
        </mxCell>
        <mxCell id="FWlroTrUWCIazvGDAyiw-34" value="" style="endArrow=none;html=1;rounded=0;fontSize=12;startSize=8;endSize=8;curved=1;" parent="1" edge="1">
          <mxGeometry width="50" height="50" relative="1" as="geometry">
            <mxPoint x="-30" y="228" as="sourcePoint" />
            <mxPoint x="90" y="228" as="targetPoint" />
          </mxGeometry>
        </mxCell>
        <mxCell id="FWlroTrUWCIazvGDAyiw-35" value="" style="endArrow=none;html=1;rounded=0;fontSize=12;startSize=8;endSize=8;curved=1;" parent="1" edge="1">
          <mxGeometry width="50" height="50" relative="1" as="geometry">
            <mxPoint x="-30" y="148" as="sourcePoint" />
            <mxPoint x="90" y="148" as="targetPoint" />
          </mxGeometry>
        </mxCell>
        <mxCell id="FWlroTrUWCIazvGDAyiw-36" value="" style="endArrow=none;html=1;rounded=0;fontSize=12;startSize=8;endSize=8;curved=1;" parent="1" edge="1">
          <mxGeometry width="50" height="50" relative="1" as="geometry">
            <mxPoint x="-30" y="228" as="sourcePoint" />
            <mxPoint x="-30" y="148" as="targetPoint" />
          </mxGeometry>
        </mxCell>
        <mxCell id="FWlroTrUWCIazvGDAyiw-37" value="" style="endArrow=none;html=1;rounded=0;fontSize=12;startSize=8;endSize=8;curved=1;" parent="1" edge="1">
          <mxGeometry width="50" height="50" relative="1" as="geometry">
            <mxPoint x="-70" y="189" as="sourcePoint" />
            <mxPoint x="-30" y="189" as="targetPoint" />
          </mxGeometry>
        </mxCell>
        <mxCell id="FWlroTrUWCIazvGDAyiw-38" value="" style="endArrow=none;html=1;rounded=0;fontSize=12;startSize=8;endSize=8;curved=1;" parent="1" edge="1">
          <mxGeometry width="50" height="50" relative="1" as="geometry">
            <mxPoint x="-70" y="177" as="sourcePoint" />
            <mxPoint x="-10" y="177" as="targetPoint" />
          </mxGeometry>
        </mxCell>
        <mxCell id="FWlroTrUWCIazvGDAyiw-39" value="" style="endArrow=none;html=1;rounded=0;fontSize=12;startSize=8;endSize=8;curved=1;" parent="1" edge="1">
          <mxGeometry width="50" height="50" relative="1" as="geometry">
            <mxPoint x="-70" y="164" as="sourcePoint" />
            <mxPoint x="10" y="164" as="targetPoint" />
          </mxGeometry>
        </mxCell>
        <mxCell id="FWlroTrUWCIazvGDAyiw-40" value="" style="endArrow=none;html=1;rounded=0;fontSize=12;startSize=8;endSize=8;curved=1;" parent="1" edge="1">
          <mxGeometry width="50" height="50" relative="1" as="geometry">
            <mxPoint x="-70" y="152.5" as="sourcePoint" />
            <mxPoint x="30" y="152.5" as="targetPoint" />
          </mxGeometry>
        </mxCell>
        <mxCell id="FWlroTrUWCIazvGDAyiw-41" value="" style="rounded=0;whiteSpace=wrap;html=1;dashed=1;fillColor=none;" parent="1" vertex="1">
          <mxGeometry x="-84" y="142" width="27" height="60" as="geometry" />
        </mxCell>
        <mxCell id="FWlroTrUWCIazvGDAyiw-18" value="" style="group;fillColor=default;" parent="1" vertex="1" connectable="0">
          <mxGeometry x="90" y="186" width="170" height="46" as="geometry" />
        </mxCell>
        <mxCell id="FWlroTrUWCIazvGDAyiw-19" value="" style="rounded=0;whiteSpace=wrap;html=1;" parent="FWlroTrUWCIazvGDAyiw-18" vertex="1">
          <mxGeometry x="-16" width="120" height="46" as="geometry" />
        </mxCell>
        <mxCell id="FWlroTrUWCIazvGDAyiw-22" value="" style="endArrow=none;dashed=1;html=1;dashPattern=1 3;strokeWidth=2;rounded=0;fontSize=12;startSize=8;endSize=8;curved=1;" parent="FWlroTrUWCIazvGDAyiw-18" edge="1">
          <mxGeometry width="50" height="50" relative="1" as="geometry">
            <mxPoint x="-36" y="28" as="sourcePoint" />
            <mxPoint x="-36" y="12" as="targetPoint" />
          </mxGeometry>
        </mxCell>
        <mxCell id="FWlroTrUWCIazvGDAyiw-23" value="&lt;font face=&quot;Times New Roman&quot;&gt;Circuit 2&lt;/font&gt;" style="text;html=1;align=center;verticalAlign=middle;whiteSpace=wrap;rounded=0;fontSize=16;" parent="FWlroTrUWCIazvGDAyiw-18" vertex="1">
          <mxGeometry x="8" y="8" width="65" height="30" as="geometry" />
        </mxCell>
        <mxCell id="FWlroTrUWCIazvGDAyiw-11" value="" style="group;fillColor=default;" parent="1" vertex="1" connectable="0">
          <mxGeometry x="90" y="106" width="199" height="46" as="geometry" />
        </mxCell>
        <mxCell id="FWlroTrUWCIazvGDAyiw-2" value="" style="rounded=0;whiteSpace=wrap;html=1;" parent="FWlroTrUWCIazvGDAyiw-11" vertex="1">
          <mxGeometry x="-16" width="120" height="46" as="geometry" />
        </mxCell>
        <mxCell id="FWlroTrUWCIazvGDAyiw-10" value="" style="endArrow=none;dashed=1;html=1;dashPattern=1 3;strokeWidth=2;rounded=0;fontSize=12;startSize=8;endSize=8;curved=1;" parent="FWlroTrUWCIazvGDAyiw-11" edge="1">
          <mxGeometry width="50" height="50" relative="1" as="geometry">
            <mxPoint x="-36" y="28" as="sourcePoint" />
            <mxPoint x="-36" y="12" as="targetPoint" />
          </mxGeometry>
        </mxCell>
        <mxCell id="FWlroTrUWCIazvGDAyiw-17" value="&lt;font face=&quot;Times New Roman&quot;&gt;Circuit 1&lt;/font&gt;" style="text;html=1;align=center;verticalAlign=middle;whiteSpace=wrap;rounded=0;fontSize=16;" parent="FWlroTrUWCIazvGDAyiw-11" vertex="1">
          <mxGeometry x="7" y="8" width="65" height="30" as="geometry" />
        </mxCell>
        <mxCell id="FWlroTrUWCIazvGDAyiw-62" value="&lt;font face=&quot;Times New Roman&quot;&gt;POs&lt;/font&gt;" style="text;html=1;align=center;verticalAlign=middle;whiteSpace=wrap;rounded=0;fontSize=16;" parent="FWlroTrUWCIazvGDAyiw-11" vertex="1">
          <mxGeometry x="139" y="3" width="60" height="30" as="geometry" />
        </mxCell>
        <mxCell id="FWlroTrUWCIazvGDAyiw-53" style="edgeStyle=orthogonalEdgeStyle;rounded=0;orthogonalLoop=1;jettySize=auto;html=1;exitX=0;exitY=0.25;exitDx=0;exitDy=0;exitPerimeter=0;entryX=1;entryY=0.25;entryDx=0;entryDy=0;fontSize=12;startSize=8;endSize=8;endArrow=none;endFill=0;" parent="1" source="FWlroTrUWCIazvGDAyiw-51" target="FWlroTrUWCIazvGDAyiw-2" edge="1">
          <mxGeometry relative="1" as="geometry" />
        </mxCell>
        <mxCell id="FWlroTrUWCIazvGDAyiw-54" style="edgeStyle=orthogonalEdgeStyle;rounded=0;orthogonalLoop=1;jettySize=auto;html=1;exitX=0;exitY=0.75;exitDx=0;exitDy=0;exitPerimeter=0;entryX=1;entryY=0.25;entryDx=0;entryDy=0;fontSize=12;startSize=8;endSize=8;endArrow=none;endFill=0;" parent="1" source="FWlroTrUWCIazvGDAyiw-51" target="FWlroTrUWCIazvGDAyiw-19" edge="1">
          <mxGeometry relative="1" as="geometry" />
        </mxCell>
        <mxCell id="FWlroTrUWCIazvGDAyiw-59" style="edgeStyle=orthogonalEdgeStyle;rounded=0;orthogonalLoop=1;jettySize=auto;html=1;exitX=1;exitY=0.5;exitDx=0;exitDy=0;exitPerimeter=0;fontSize=12;startSize=8;endSize=8;endArrow=none;endFill=0;entryX=0;entryY=0.25;entryDx=0;entryDy=0;entryPerimeter=0;" parent="1" source="FWlroTrUWCIazvGDAyiw-51" target="FWlroTrUWCIazvGDAyiw-63" edge="1">
          <mxGeometry relative="1" as="geometry">
            <mxPoint x="344.91949462890625" y="153" as="targetPoint" />
          </mxGeometry>
        </mxCell>
        <mxCell id="FWlroTrUWCIazvGDAyiw-51" value="" style="verticalLabelPosition=bottom;shadow=0;dashed=0;align=center;html=1;verticalAlign=top;shape=mxgraph.electrical.logic_gates.logic_gate;operation=xor;" parent="1" vertex="1">
          <mxGeometry x="279" y="137" width="48" height="31" as="geometry" />
        </mxCell>
        <mxCell id="FWlroTrUWCIazvGDAyiw-55" style="edgeStyle=orthogonalEdgeStyle;rounded=0;orthogonalLoop=1;jettySize=auto;html=1;exitX=0;exitY=0.25;exitDx=0;exitDy=0;exitPerimeter=0;entryX=1;entryY=0.75;entryDx=0;entryDy=0;fontSize=12;startSize=8;endSize=8;endArrow=none;endFill=0;" parent="1" source="FWlroTrUWCIazvGDAyiw-52" target="FWlroTrUWCIazvGDAyiw-2" edge="1">
          <mxGeometry relative="1" as="geometry">
            <Array as="points">
              <mxPoint x="248" y="186" />
              <mxPoint x="248" y="141" />
            </Array>
          </mxGeometry>
        </mxCell>
        <mxCell id="FWlroTrUWCIazvGDAyiw-56" style="edgeStyle=orthogonalEdgeStyle;rounded=0;orthogonalLoop=1;jettySize=auto;html=1;exitX=0;exitY=0.75;exitDx=0;exitDy=0;exitPerimeter=0;entryX=1;entryY=0.75;entryDx=0;entryDy=0;fontSize=12;startSize=8;endSize=8;endArrow=none;endFill=0;" parent="1" source="FWlroTrUWCIazvGDAyiw-52" target="FWlroTrUWCIazvGDAyiw-19" edge="1">
          <mxGeometry relative="1" as="geometry">
            <Array as="points">
              <mxPoint x="248" y="201" />
              <mxPoint x="248" y="221" />
            </Array>
          </mxGeometry>
        </mxCell>
        <mxCell id="FWlroTrUWCIazvGDAyiw-60" style="edgeStyle=orthogonalEdgeStyle;rounded=0;orthogonalLoop=1;jettySize=auto;html=1;exitX=1;exitY=0.5;exitDx=0;exitDy=0;exitPerimeter=0;fontSize=12;startSize=8;endSize=8;endArrow=none;endFill=0;entryX=0;entryY=0.75;entryDx=0;entryDy=0;entryPerimeter=0;" parent="1" source="FWlroTrUWCIazvGDAyiw-52" target="FWlroTrUWCIazvGDAyiw-63" edge="1">
          <mxGeometry relative="1" as="geometry">
            <mxPoint x="344.46380615234375" y="194" as="targetPoint" />
          </mxGeometry>
        </mxCell>
        <mxCell id="FWlroTrUWCIazvGDAyiw-52" value="" style="verticalLabelPosition=bottom;shadow=0;dashed=0;align=center;html=1;verticalAlign=top;shape=mxgraph.electrical.logic_gates.logic_gate;operation=xor;" parent="1" vertex="1">
          <mxGeometry x="279" y="178" width="48" height="31" as="geometry" />
        </mxCell>
        <mxCell id="FWlroTrUWCIazvGDAyiw-57" value="" style="rounded=0;whiteSpace=wrap;html=1;dashed=1;fillColor=none;" parent="1" vertex="1">
          <mxGeometry x="209" y="107" width="30" height="124" as="geometry" />
        </mxCell>
        <mxCell id="FWlroTrUWCIazvGDAyiw-61" value="&lt;font face=&quot;Times New Roman&quot;&gt;PIs&lt;/font&gt;" style="text;html=1;align=center;verticalAlign=middle;whiteSpace=wrap;rounded=0;fontSize=16;" parent="1" vertex="1">
          <mxGeometry x="-100.5" y="116" width="60" height="30" as="geometry" />
        </mxCell>
        <mxCell id="FWlroTrUWCIazvGDAyiw-63" value="" style="verticalLabelPosition=bottom;shadow=0;dashed=0;align=center;html=1;verticalAlign=top;shape=mxgraph.electrical.logic_gates.logic_gate;operation=or;" parent="1" vertex="1">
          <mxGeometry x="327" y="156.5" width="51" height="31" as="geometry" />
        </mxCell>
        <mxCell id="5quea-IIjvWIthhHO4DX-1" value="" style="endArrow=none;html=1;rounded=0;fontSize=12;startSize=8;endSize=8;curved=1;fontFamily=Times New Roman;" edge="1" parent="1">
          <mxGeometry width="50" height="50" relative="1" as="geometry">
            <mxPoint x="41.5" y="349" as="sourcePoint" />
            <mxPoint x="73.5" y="349" as="targetPoint" />
          </mxGeometry>
        </mxCell>
        <mxCell id="5quea-IIjvWIthhHO4DX-2" value="" style="endArrow=none;html=1;rounded=0;fontSize=12;startSize=8;endSize=8;curved=1;fontFamily=Times New Roman;" edge="1" parent="1">
          <mxGeometry width="50" height="50" relative="1" as="geometry">
            <mxPoint x="41.5" y="429" as="sourcePoint" />
            <mxPoint x="73.5" y="429" as="targetPoint" />
          </mxGeometry>
        </mxCell>
        <mxCell id="5quea-IIjvWIthhHO4DX-3" value="" style="endArrow=none;html=1;rounded=0;fontSize=12;startSize=8;endSize=8;curved=1;fontFamily=Times New Roman;" edge="1" parent="1">
          <mxGeometry width="50" height="50" relative="1" as="geometry">
            <mxPoint x="41.5" y="429" as="sourcePoint" />
            <mxPoint x="41.5" y="349" as="targetPoint" />
          </mxGeometry>
        </mxCell>
        <mxCell id="5quea-IIjvWIthhHO4DX-10" value="" style="endArrow=none;html=1;rounded=0;fontSize=12;startSize=8;endSize=8;curved=1;fontFamily=Times New Roman;" edge="1" parent="1">
          <mxGeometry width="50" height="50" relative="1" as="geometry">
            <mxPoint x="21.5" y="469" as="sourcePoint" />
            <mxPoint x="73.5" y="469" as="targetPoint" />
          </mxGeometry>
        </mxCell>
        <mxCell id="5quea-IIjvWIthhHO4DX-11" value="" style="endArrow=none;html=1;rounded=0;fontSize=12;startSize=8;endSize=8;curved=1;fontFamily=Times New Roman;" edge="1" parent="1">
          <mxGeometry width="50" height="50" relative="1" as="geometry">
            <mxPoint x="21.5" y="389" as="sourcePoint" />
            <mxPoint x="73.5" y="389" as="targetPoint" />
          </mxGeometry>
        </mxCell>
        <mxCell id="5quea-IIjvWIthhHO4DX-12" value="" style="endArrow=none;html=1;rounded=0;fontSize=12;startSize=8;endSize=8;curved=1;labelBackgroundColor=#D4E1F5;fontFamily=Times New Roman;" edge="1" parent="1">
          <mxGeometry width="50" height="50" relative="1" as="geometry">
            <mxPoint x="21.5" y="469" as="sourcePoint" />
            <mxPoint x="21.5" y="389" as="targetPoint" />
          </mxGeometry>
        </mxCell>
        <mxCell id="5quea-IIjvWIthhHO4DX-13" value="" style="endArrow=none;html=1;rounded=0;fontSize=12;startSize=8;endSize=8;curved=1;labelBackgroundColor=#D4E1F5;fontFamily=Times New Roman;" edge="1" parent="1">
          <mxGeometry width="50" height="50" relative="1" as="geometry">
            <mxPoint x="-26" y="430" as="sourcePoint" />
            <mxPoint x="21.5" y="430" as="targetPoint" />
          </mxGeometry>
        </mxCell>
        <mxCell id="5quea-IIjvWIthhHO4DX-16" value="" style="endArrow=none;html=1;rounded=0;fontSize=12;startSize=8;endSize=8;curved=1;fontFamily=Times New Roman;" edge="1" parent="1">
          <mxGeometry width="50" height="50" relative="1" as="geometry">
            <mxPoint x="-26" y="394" as="sourcePoint" />
            <mxPoint x="41.5" y="394" as="targetPoint" />
          </mxGeometry>
        </mxCell>
        <mxCell id="5quea-IIjvWIthhHO4DX-18" value="" style="group;fillColor=none;fontFamily=Times New Roman;" vertex="1" connectable="0" parent="1">
          <mxGeometry x="73.5" y="427" width="170" height="86" as="geometry" />
        </mxCell>
        <mxCell id="5quea-IIjvWIthhHO4DX-19" value="" style="rounded=0;whiteSpace=wrap;html=1;fillColor=#f5f5f5;fontColor=#333333;strokeColor=#666666;strokeWidth=3;fontFamily=Times New Roman;" vertex="1" parent="5quea-IIjvWIthhHO4DX-18">
          <mxGeometry x="-16" width="120" height="46" as="geometry" />
        </mxCell>
        <mxCell id="5quea-IIjvWIthhHO4DX-20" value="" style="endArrow=none;dashed=1;html=1;dashPattern=1 3;strokeWidth=2;rounded=0;fontSize=12;startSize=8;endSize=8;curved=1;fontFamily=Times New Roman;" edge="1" parent="5quea-IIjvWIthhHO4DX-18">
          <mxGeometry width="50" height="50" relative="1" as="geometry">
            <mxPoint x="-25" y="28" as="sourcePoint" />
            <mxPoint x="-25" y="12" as="targetPoint" />
          </mxGeometry>
        </mxCell>
        <mxCell id="5quea-IIjvWIthhHO4DX-21" value="&lt;font&gt;Circuit 2&lt;/font&gt;" style="text;html=1;align=center;verticalAlign=middle;whiteSpace=wrap;rounded=0;fontSize=16;fontFamily=Times New Roman;" vertex="1" parent="5quea-IIjvWIthhHO4DX-18">
          <mxGeometry x="8" y="8" width="65" height="30" as="geometry" />
        </mxCell>
        <mxCell id="5quea-IIjvWIthhHO4DX-35" value="" style="rounded=0;whiteSpace=wrap;html=1;dashed=1;fillColor=#bac8d3;strokeColor=#23445d;opacity=40;fontFamily=Times New Roman;" vertex="1" parent="5quea-IIjvWIthhHO4DX-18">
          <mxGeometry x="108.5" y="-82" width="17.5" height="141" as="geometry" />
        </mxCell>
        <mxCell id="5quea-IIjvWIthhHO4DX-60" value="&lt;b style=&quot;font-size: 12px;&quot;&gt;a&lt;/b&gt;&lt;span style=&quot;color: rgba(0, 0, 0, 0); font-size: 0px; text-align: start; text-wrap-mode: nowrap;&quot;&gt;%3CmxGraphModel%3E%3Croot%3E%3CmxCell%20id%3D%220%22%2F%3E%3CmxCell%20id%3D%221%22%20parent%3D%220%22%2F%3E%3CmxCell%20id%3D%222%22%20value%3D%22%26lt%3Bb%20style%3D%26quot%3Bfont-family%3A%20%26amp%3Bquot%3BTimes%20New%20Roman%26amp%3Bquot%3B%3B%20font-size%3A%2012px%3B%26quot%3B%26gt%3B1%26lt%3B%2Fb%26gt%3B%22%20style%3D%22text%3Bhtml%3D1%3Balign%3Dcenter%3BverticalAlign%3Dmiddle%3BwhiteSpace%3Dwrap%3Brounded%3D0%3BfontSize%3D16%3B%22%20vertex%3D%221%22%20parent%3D%221%22%3E%3CmxGeometry%20x%3D%225%22%20y%3D%22537%22%20width%3D%2254.5%22%20height%3D%2225%22%20as%3D%22geometry%22%2F%3E%3C%2FmxCell%3E%3C%2Froot%3E%3C%2FmxGraphModel%3E&lt;/span&gt;" style="text;html=1;align=center;verticalAlign=middle;whiteSpace=wrap;rounded=0;fontSize=16;fontFamily=Times New Roman;" vertex="1" parent="5quea-IIjvWIthhHO4DX-18">
          <mxGeometry x="87.5" y="-10" width="54.5" height="25" as="geometry" />
        </mxCell>
        <mxCell id="5quea-IIjvWIthhHO4DX-61" value="&lt;b style=&quot;font-size: 12px;&quot;&gt;b&lt;/b&gt;" style="text;html=1;align=center;verticalAlign=middle;whiteSpace=wrap;rounded=0;fontSize=16;fontFamily=Times New Roman;" vertex="1" parent="5quea-IIjvWIthhHO4DX-18">
          <mxGeometry x="87.5" y="13" width="54.5" height="25" as="geometry" />
        </mxCell>
        <mxCell id="5quea-IIjvWIthhHO4DX-22" value="" style="group;fillColor=none;strokeWidth=1;fontFamily=Times New Roman;" vertex="1" connectable="0" parent="1">
          <mxGeometry x="73.5" y="346" width="199" height="52.5" as="geometry" />
        </mxCell>
        <mxCell id="5quea-IIjvWIthhHO4DX-23" value="" style="rounded=0;whiteSpace=wrap;html=1;fillColor=#f5f5f5;fontColor=#333333;strokeColor=#666666;strokeWidth=3;fontFamily=Times New Roman;" vertex="1" parent="5quea-IIjvWIthhHO4DX-22">
          <mxGeometry x="-16" width="120" height="46" as="geometry" />
        </mxCell>
        <mxCell id="5quea-IIjvWIthhHO4DX-24" value="" style="endArrow=none;dashed=1;html=1;dashPattern=1 3;strokeWidth=2;rounded=0;fontSize=12;startSize=8;endSize=8;curved=1;fontFamily=Times New Roman;" edge="1" parent="5quea-IIjvWIthhHO4DX-22">
          <mxGeometry width="50" height="50" relative="1" as="geometry">
            <mxPoint x="-25" y="28" as="sourcePoint" />
            <mxPoint x="-25" y="12" as="targetPoint" />
          </mxGeometry>
        </mxCell>
        <mxCell id="5quea-IIjvWIthhHO4DX-25" value="&lt;font&gt;Circuit 1&lt;/font&gt;" style="text;html=1;align=center;verticalAlign=middle;whiteSpace=wrap;rounded=0;fontSize=16;fontFamily=Times New Roman;" vertex="1" parent="5quea-IIjvWIthhHO4DX-22">
          <mxGeometry x="7" y="8" width="65" height="30" as="geometry" />
        </mxCell>
        <mxCell id="5quea-IIjvWIthhHO4DX-26" value="&lt;font&gt;POs&lt;/font&gt;" style="text;html=1;align=center;verticalAlign=middle;whiteSpace=wrap;rounded=0;fontSize=16;fontFamily=Times New Roman;" vertex="1" parent="5quea-IIjvWIthhHO4DX-22">
          <mxGeometry x="129.5" width="60" height="30" as="geometry" />
        </mxCell>
        <mxCell id="5quea-IIjvWIthhHO4DX-62" value="&lt;b style=&quot;font-size: 12px;&quot;&gt;a&lt;/b&gt;&lt;span style=&quot;color: rgba(0, 0, 0, 0); font-size: 0px; text-align: start; text-wrap-mode: nowrap;&quot;&gt;%3CmxGraphModel%3E%3Croot%3E%3CmxCell%20id%3D%220%22%2F%3E%3CmxCell%20id%3D%221%22%20parent%3D%220%22%2F%3E%3CmxCell%20id%3D%222%22%20value%3D%22%26lt%3Bb%20style%3D%26quot%3Bfont-family%3A%20%26amp%3Bquot%3BTimes%20New%20Roman%26amp%3Bquot%3B%3B%20font-size%3A%2012px%3B%26quot%3B%26gt%3B1%26lt%3B%2Fb%26gt%3B%22%20style%3D%22text%3Bhtml%3D1%3Balign%3Dcenter%3BverticalAlign%3Dmiddle%3BwhiteSpace%3Dwrap%3Brounded%3D0%3BfontSize%3D16%3B%22%20vertex%3D%221%22%20parent%3D%221%22%3E%3CmxGeometry%20x%3D%225%22%20y%3D%22537%22%20width%3D%2254.5%22%20height%3D%2225%22%20as%3D%22geometry%22%2F%3E%3C%2FmxCell%3E%3C%2Froot%3E%3C%2FmxGraphModel%3E&lt;/span&gt;" style="text;html=1;align=center;verticalAlign=middle;whiteSpace=wrap;rounded=0;fontSize=16;fontFamily=Times New Roman;" vertex="1" parent="5quea-IIjvWIthhHO4DX-22">
          <mxGeometry x="88.5" y="2.5" width="54.5" height="25" as="geometry" />
        </mxCell>
        <mxCell id="5quea-IIjvWIthhHO4DX-64" value="&lt;b style=&quot;font-size: 12px;&quot;&gt;b&lt;/b&gt;" style="text;html=1;align=center;verticalAlign=middle;whiteSpace=wrap;rounded=0;fontSize=16;fontFamily=Times New Roman;" vertex="1" parent="5quea-IIjvWIthhHO4DX-22">
          <mxGeometry x="88.5" y="24.5" width="54.5" height="25" as="geometry" />
        </mxCell>
        <mxCell id="5quea-IIjvWIthhHO4DX-27" style="edgeStyle=orthogonalEdgeStyle;rounded=1;orthogonalLoop=1;jettySize=auto;html=1;exitX=0;exitY=0.25;exitDx=0;exitDy=0;exitPerimeter=0;entryX=1;entryY=0.25;entryDx=0;entryDy=0;fontSize=12;startSize=8;endSize=8;endArrow=none;endFill=0;curved=0;strokeWidth=2;strokeColor=#333333;fontFamily=Times New Roman;" edge="1" parent="1" source="5quea-IIjvWIthhHO4DX-30" target="5quea-IIjvWIthhHO4DX-23">
          <mxGeometry relative="1" as="geometry" />
        </mxCell>
        <mxCell id="5quea-IIjvWIthhHO4DX-28" style="edgeStyle=orthogonalEdgeStyle;rounded=1;orthogonalLoop=1;jettySize=auto;html=1;exitX=0;exitY=0.75;exitDx=0;exitDy=0;exitPerimeter=0;entryX=1;entryY=0.25;entryDx=0;entryDy=0;fontSize=12;startSize=8;endSize=8;endArrow=none;endFill=0;curved=0;strokeWidth=2;strokeColor=#333333;fontFamily=Times New Roman;" edge="1" parent="1" source="5quea-IIjvWIthhHO4DX-30" target="5quea-IIjvWIthhHO4DX-19">
          <mxGeometry relative="1" as="geometry" />
        </mxCell>
        <mxCell id="5quea-IIjvWIthhHO4DX-29" style="edgeStyle=orthogonalEdgeStyle;rounded=0;orthogonalLoop=1;jettySize=auto;html=1;exitX=1;exitY=0.5;exitDx=0;exitDy=0;exitPerimeter=0;fontSize=12;startSize=8;endSize=8;endArrow=none;endFill=0;entryX=0;entryY=0.25;entryDx=0;entryDy=0;entryPerimeter=0;fontFamily=Times New Roman;" edge="1" parent="1" source="5quea-IIjvWIthhHO4DX-30" target="5quea-IIjvWIthhHO4DX-37">
          <mxGeometry relative="1" as="geometry">
            <mxPoint x="312.41949462890625" y="394" as="targetPoint" />
          </mxGeometry>
        </mxCell>
        <mxCell id="5quea-IIjvWIthhHO4DX-30" value="" style="verticalLabelPosition=bottom;shadow=0;dashed=0;align=center;html=1;verticalAlign=top;shape=mxgraph.electrical.logic_gates.logic_gate;operation=xor;fillColor=#eeeeee;strokeColor=#36393d;fontFamily=Times New Roman;" vertex="1" parent="1">
          <mxGeometry x="249" y="364.5" width="48" height="31" as="geometry" />
        </mxCell>
        <mxCell id="5quea-IIjvWIthhHO4DX-31" style="edgeStyle=orthogonalEdgeStyle;rounded=1;orthogonalLoop=1;jettySize=auto;html=1;exitX=0;exitY=0.25;exitDx=0;exitDy=0;exitPerimeter=0;entryX=1;entryY=0.75;entryDx=0;entryDy=0;fontSize=12;startSize=8;endSize=8;endArrow=none;endFill=0;curved=0;strokeWidth=2;strokeColor=#003366;fontFamily=Times New Roman;" edge="1" parent="1" source="5quea-IIjvWIthhHO4DX-34" target="5quea-IIjvWIthhHO4DX-23">
          <mxGeometry relative="1" as="geometry">
            <Array as="points">
              <mxPoint x="200" y="435" />
              <mxPoint x="200" y="378" />
              <mxPoint x="178" y="378" />
            </Array>
          </mxGeometry>
        </mxCell>
        <mxCell id="5quea-IIjvWIthhHO4DX-32" style="edgeStyle=orthogonalEdgeStyle;rounded=1;orthogonalLoop=1;jettySize=auto;html=1;exitX=0;exitY=0.75;exitDx=0;exitDy=0;exitPerimeter=0;entryX=1;entryY=0.75;entryDx=0;entryDy=0;fontSize=12;startSize=8;endSize=8;endArrow=none;endFill=0;curved=0;strokeWidth=2;strokeColor=#003366;fontFamily=Times New Roman;" edge="1" parent="1" source="5quea-IIjvWIthhHO4DX-34" target="5quea-IIjvWIthhHO4DX-19">
          <mxGeometry relative="1" as="geometry">
            <Array as="points">
              <mxPoint x="201" y="450" />
              <mxPoint x="201" y="462" />
            </Array>
          </mxGeometry>
        </mxCell>
        <mxCell id="5quea-IIjvWIthhHO4DX-33" style="edgeStyle=orthogonalEdgeStyle;rounded=0;orthogonalLoop=1;jettySize=auto;html=1;exitX=1;exitY=0.5;exitDx=0;exitDy=0;exitPerimeter=0;fontSize=12;startSize=8;endSize=8;endArrow=none;endFill=0;entryX=0;entryY=0.75;entryDx=0;entryDy=0;entryPerimeter=0;fontFamily=Times New Roman;" edge="1" parent="1" source="5quea-IIjvWIthhHO4DX-34" target="5quea-IIjvWIthhHO4DX-37">
          <mxGeometry relative="1" as="geometry">
            <mxPoint x="311.96380615234375" y="435" as="targetPoint" />
          </mxGeometry>
        </mxCell>
        <mxCell id="5quea-IIjvWIthhHO4DX-34" value="" style="verticalLabelPosition=bottom;shadow=0;dashed=0;align=center;html=1;verticalAlign=top;shape=mxgraph.electrical.logic_gates.logic_gate;operation=xor;fillColor=#eeeeee;strokeColor=#36393d;fontFamily=Times New Roman;" vertex="1" parent="1">
          <mxGeometry x="249" y="427" width="48" height="31" as="geometry" />
        </mxCell>
        <mxCell id="5quea-IIjvWIthhHO4DX-36" value="&lt;font&gt;PIs&lt;/font&gt;" style="text;html=1;align=center;verticalAlign=middle;whiteSpace=wrap;rounded=0;fontSize=16;fontFamily=Times New Roman;" vertex="1" parent="1">
          <mxGeometry x="-37" y="347" width="60" height="30" as="geometry" />
        </mxCell>
        <mxCell id="5quea-IIjvWIthhHO4DX-37" value="" style="verticalLabelPosition=bottom;shadow=0;dashed=0;align=center;html=1;verticalAlign=top;shape=mxgraph.electrical.logic_gates.logic_gate;operation=or;fillColor=#eeeeee;strokeColor=#36393d;fontFamily=Times New Roman;" vertex="1" parent="1">
          <mxGeometry x="306" y="396.5" width="51" height="31" as="geometry" />
        </mxCell>
        <mxCell id="5quea-IIjvWIthhHO4DX-57" value="&lt;b style=&quot;font-size: 12px;&quot;&gt;1&lt;/b&gt;" style="text;html=1;align=center;verticalAlign=middle;whiteSpace=wrap;rounded=0;fontSize=16;fontFamily=Times New Roman;" vertex="1" parent="1">
          <mxGeometry x="-29.75" y="389" width="54.5" height="25" as="geometry" />
        </mxCell>
        <mxCell id="5quea-IIjvWIthhHO4DX-67" value="&lt;b style=&quot;font-size: 12px;&quot;&gt;2&lt;/b&gt;" style="text;html=1;align=center;verticalAlign=middle;whiteSpace=wrap;rounded=0;fontSize=16;fontFamily=Times New Roman;" vertex="1" parent="1">
          <mxGeometry x="-29.75" y="423" width="54.5" height="25" as="geometry" />
        </mxCell>
        <mxCell id="5quea-IIjvWIthhHO4DX-68" value="&lt;font face=&quot;Times New Roman&quot;&gt;Miter&lt;/font&gt;" style="text;html=1;align=center;verticalAlign=middle;whiteSpace=wrap;rounded=0;fontSize=16;" vertex="1" parent="1">
          <mxGeometry x="282" y="317" width="60" height="30" as="geometry" />
        </mxCell>
      </root>
    </mxGraphModel>
  </diagram>
</mxfile>
